<?xml version="1.0" encoding="UTF-8"?>
<svg xmlns="http://www.w3.org/2000/svg" xmlns:xlink="http://www.w3.org/1999/xlink" width="48px" height="48px" viewBox="0 0 48 48" version="1.1">
<g id="surface1">
<path style=" stroke:none;fill-rule:nonzero;fill:rgb(36.078431%,69.019608%,100%);fill-opacity:1;" d="M 38.410156 33.671875 C 38.410156 30.21875 35.601562 27.410156 32.148438 27.410156 C 28.695312 27.410156 25.886719 30.21875 25.886719 33.671875 C 25.886719 37.125 28.695312 39.933594 32.148438 39.933594 C 35.601562 39.933594 38.410156 37.125 38.410156 33.671875 Z M 38.410156 33.671875 "/>
<path style=" stroke:none;fill-rule:nonzero;fill:rgb(10.980392%,44.313725%,85.490196%);fill-opacity:1;" d="M 21.414062 39.039062 L 21.414062 22.042969 L 31.027344 22.042969 C 31.03125 22.21875 31.042969 22.390625 31.042969 22.570312 C 31.042969 23.0625 31.441406 23.464844 31.9375 23.464844 C 32.433594 23.464844 32.832031 23.0625 32.832031 22.570312 C 32.832031 22.390625 32.820312 22.21875 32.816406 22.042969 L 40.199219 22.042969 C 40.199219 11.683594 31.773438 3.257812 21.414062 3.257812 L 19.625 3.257812 L 19.625 3.347656 C 10.101562 4.253906 2.628906 12.289062 2.628906 22.042969 C 2.628906 32.402344 11.054688 40.828125 21.414062 40.828125 C 21.90625 40.828125 22.308594 40.429688 22.308594 39.933594 C 22.308594 39.441406 21.90625 39.039062 21.414062 39.039062 Z M 19.625 38.742188 C 15.167969 37.304688 11.785156 30.605469 11.785156 22.570312 C 11.785156 22.390625 11.796875 22.21875 11.800781 22.042969 L 19.625 22.042969 Z M 11.890625 20.253906 C 12.46875 13.273438 15.605469 7.691406 19.625 6.394531 L 19.625 20.253906 Z M 21.414062 20.253906 L 21.414062 6.097656 C 26.261719 6.097656 30.273438 12.265625 30.9375 20.253906 Z M 38.3125 20.253906 L 32.730469 20.253906 C 32.195312 13.546875 29.382812 7.976562 25.574219 5.582031 C 32.375 7.304688 37.5625 13.117188 38.3125 20.253906 Z M 17.253906 5.582031 C 13.441406 7.976562 10.628906 13.546875 10.097656 20.253906 L 4.511719 20.253906 C 5.261719 13.117188 10.449219 7.304688 17.253906 5.582031 Z M 4.417969 22.042969 L 10.011719 22.042969 C 10.007812 22.21875 9.996094 22.390625 9.996094 22.570312 C 9.996094 28.949219 12.054688 34.570312 15.164062 37.835938 C 8.878906 35.339844 4.417969 29.207031 4.417969 22.042969 Z M 4.417969 22.042969 "/>
<path style=" stroke:none;fill-rule:nonzero;fill:rgb(10.980392%,44.313725%,85.490196%);fill-opacity:1;" d="M 42.832031 43.089844 L 38.433594 38.691406 C 39.535156 37.3125 40.199219 35.570312 40.199219 33.671875 C 40.199219 29.234375 36.589844 25.621094 32.148438 25.621094 C 27.707031 25.621094 24.097656 29.234375 24.097656 33.671875 C 24.097656 38.113281 27.707031 41.722656 32.148438 41.722656 C 34.046875 41.722656 35.789062 41.058594 37.167969 39.957031 L 41.566406 44.355469 Z M 25.886719 33.671875 C 25.886719 30.21875 28.695312 27.410156 32.148438 27.410156 C 35.601562 27.410156 38.410156 30.21875 38.410156 33.671875 C 38.410156 37.125 35.601562 39.933594 32.148438 39.933594 C 28.695312 39.933594 25.886719 37.125 25.886719 33.671875 Z M 25.886719 33.671875 "/>
<path style=" stroke:none;fill-rule:nonzero;fill:rgb(100%,36.470588%,36.470588%);fill-opacity:1;" d="M 0.894531 6.796875 C 0.664062 6.796875 0.4375 6.707031 0.261719 6.535156 C -0.0859375 6.183594 -0.0859375 5.617188 0.261719 5.269531 L 3.425781 2.105469 C 3.773438 1.757812 4.339844 1.757812 4.691406 2.105469 C 5.039062 2.453125 5.039062 3.019531 4.691406 3.371094 L 1.527344 6.535156 C 1.351562 6.707031 1.125 6.796875 0.894531 6.796875 Z M 0.894531 6.796875 "/>
<path style=" stroke:none;fill-rule:nonzero;fill:rgb(100%,36.470588%,36.470588%);fill-opacity:1;" d="M 4.058594 6.796875 C 3.828125 6.796875 3.601562 6.707031 3.425781 6.535156 L 0.261719 3.371094 C -0.0859375 3.019531 -0.0859375 2.453125 0.261719 2.105469 C 0.609375 1.757812 1.175781 1.757812 1.527344 2.105469 L 4.691406 5.269531 C 5.039062 5.617188 5.039062 6.183594 4.691406 6.535156 C 4.515625 6.707031 4.285156 6.796875 4.058594 6.796875 Z M 4.058594 6.796875 "/>
<path style=" stroke:none;fill-rule:nonzero;fill:rgb(0%,83.137255%,4.313725%);fill-opacity:1;" d="M 3.132812 46.15625 C 1.40625 46.15625 0 44.75 0 43.027344 C 0 41.300781 1.40625 39.894531 3.132812 39.894531 C 4.859375 39.894531 6.261719 41.300781 6.261719 43.027344 C 6.261719 44.75 4.859375 46.15625 3.132812 46.15625 Z M 3.132812 41.683594 C 2.390625 41.683594 1.789062 42.285156 1.789062 43.027344 C 1.789062 43.765625 2.390625 44.367188 3.132812 44.367188 C 3.871094 44.367188 4.472656 43.765625 4.472656 43.027344 C 4.472656 42.285156 3.871094 41.683594 3.132812 41.683594 Z M 3.132812 41.683594 "/>
<path style=" stroke:none;fill-rule:nonzero;fill:rgb(100%,77.254902%,1.568627%);fill-opacity:1;" d="M 44.574219 14.539062 C 44.339844 14.539062 44.109375 14.445312 43.941406 14.277344 L 41.414062 11.746094 C 41.246094 11.578125 41.148438 11.351562 41.148438 11.113281 C 41.148438 10.878906 41.246094 10.648438 41.414062 10.480469 L 43.941406 7.953125 C 44.292969 7.601562 44.859375 7.601562 45.207031 7.953125 L 47.738281 10.480469 C 48.085938 10.832031 48.085938 11.398438 47.738281 11.746094 L 45.207031 14.277344 C 45.039062 14.445312 44.8125 14.539062 44.574219 14.539062 Z M 43.308594 11.113281 L 44.574219 12.378906 L 45.839844 11.113281 L 44.574219 9.847656 Z M 43.308594 11.113281 "/>
</g>
</svg>
